<svg xmlns="http://www.w3.org/2000/svg" viewBox="0 0 242.65 166.88"><defs><style>.cls-1,.cls-7{fill:#2a587d;}.cls-2{fill:#ffc527;}.cls-3{font-size:9px;}.cls-12,.cls-15,.cls-20,.cls-3{fill:#666766;}.cls-12,.cls-15,.cls-20,.cls-3,.cls-7{font-family:Montserrat-Regular, Montserrat;}.cls-4{letter-spacing:0.01em;}.cls-5{letter-spacing:-0.01em;}.cls-6{letter-spacing:0em;}.cls-15,.cls-7{font-size:8px;}.cls-8{letter-spacing:-0.01em;}.cls-9{letter-spacing:-0.01em;}.cls-10{letter-spacing:-0.02em;}.cls-11{letter-spacing:0em;}.cls-12,.cls-20{font-size:12px;}.cls-13{letter-spacing:-0.01em;}.cls-14{letter-spacing:0em;}.cls-16{letter-spacing:0em;}.cls-17{letter-spacing:-0.01em;}.cls-18{letter-spacing:0em;}.cls-19{letter-spacing:-0.02em;}.cls-20{letter-spacing:-0.02em;}.cls-21{letter-spacing:-0.01em;}.cls-22{letter-spacing:0em;}.cls-23{letter-spacing:-0.01em;}.cls-24{letter-spacing:-0.02em;}.cls-25{letter-spacing:-0.02em;}.cls-26{letter-spacing:-0.03em;}.cls-27{letter-spacing:0.01em;}.cls-28{letter-spacing:-0.03em;}.cls-29{letter-spacing:-0.05em;}</style></defs><title>Sizing Chart</title><g id="Layer_2" data-name="Layer 2"><g id="Back"><rect class="cls-1" x="0.41" y="14.72" width="23.3" height="30.15"/><rect class="cls-2" x="30.91" y="14.72" width="32.89" height="49.34"/><rect class="cls-2" x="71" y="14.72" width="65.78" height="98.67"/><rect class="cls-2" x="143.98" y="14.72" width="98.67" height="131.56"/><text class="cls-3" transform="translate(0 11.25)"><tspan class="cls-4">8</tspan><tspan x="5.83" y="0">.</tspan><tspan class="cls-5" x="7.74" y="0">5</tspan><tspan class="cls-6" x="12.77" y="0">x</tspan><tspan x="17.62" y="0">11</tspan></text><text class="cls-7" transform="translate(0.18 55.03)"><tspan class="cls-8">L</tspan><tspan x="4.65" y="0">e</tspan><tspan class="cls-9" x="9.48" y="0">t</tspan><tspan class="cls-10" x="12.62" y="0">t</tspan><tspan class="cls-11" x="15.71" y="0">er</tspan></text><text class="cls-12" transform="translate(32.6 10.2)">1<tspan class="cls-13" x="4.33" y="0">2</tspan><tspan class="cls-14" x="11.05" y="0">x</tspan><tspan x="17.52" y="0">18</tspan></text><text class="cls-15" transform="translate(35.92 76)"><tspan class="cls-16">L</tspan><tspan x="4.73" y="0">a</tspan><tspan class="cls-17" x="9.45" y="0">r</tspan><tspan class="cls-18" x="12.55" y="0">ge</tspan><tspan class="cls-19" x="-3.33" y="9.6">F</tspan><tspan x="1.59" y="9.6">o</tspan><tspan class="cls-8" x="6.6" y="9.6">r</tspan><tspan x="9.75" y="9.6">mat</tspan></text><text class="cls-20" transform="translate(86.48 10.2)">2<tspan class="cls-21" x="6.54" y="0">4</tspan><tspan class="cls-22" x="14.33" y="0">x36</tspan></text><text class="cls-12" transform="translate(84.61 129.16)"><tspan class="cls-23">P</tspan><tspan x="8.46" y="0">os</tspan><tspan class="cls-24" x="21.85" y="0">t</tspan><tspan class="cls-22" x="26.5" y="0">er</tspan></text><text class="cls-12" transform="translate(175.5 10.2)">3<tspan class="cls-25" x="6.77" y="0">6</tspan><tspan class="cls-26" x="13.9" y="0">x</tspan><tspan class="cls-27" x="19.92" y="0">4</tspan><tspan x="27.97" y="0">8</tspan></text><text class="cls-12" transform="translate(164.68 163.74)"><tspan class="cls-28">T</tspan><tspan x="6.54" y="0">able </tspan><tspan class="cls-29" x="35.38" y="0">T</tspan><tspan x="41.6" y="0">op</tspan></text></g></g></svg>