<svg xmlns="http://www.w3.org/2000/svg" viewBox="0 0 242.65 166.88"><defs><style>.cls-12{fill:#666766;font-family:Montserrat-Regular,Montserrat}.cls-8{letter-spacing:-.01em}.cls-12{font-size:12px}.cls-22{letter-spacing:0}</style></defs><g id="Layer_2" data-name="Layer 2"><g id="Back"><path fill="#2a587d" d="M.41 14.72h23.3v30.15H.41z"/><path d="M30.91 14.72H63.8v49.34H30.91zm40.09 0h65.78v98.67H71zm72.98 0h98.67v131.56h-98.67z" fill="#ffc527"/><text transform="translate(0 11.25)" font-family="Montserrat-Regular,Montserrat" fill="#666766" font-size="9"><tspan letter-spacing=".01em">8</tspan><tspan x="5.83" y="0">.</tspan><tspan x="7.74" y="0" letter-spacing="-.01em">5</tspan><tspan x="12.77" y="0" letter-spacing="0">x</tspan><tspan x="17.62" y="0">11</tspan></text><text transform="translate(.18 55.03)" font-size="8" font-family="Montserrat-Regular,Montserrat" fill="#2a587d"><tspan class="cls-8">L</tspan><tspan x="4.65" y="0">e</tspan><tspan x="9.48" y="0" letter-spacing="-.01em">t</tspan><tspan x="12.62" y="0" letter-spacing="-.02em">t</tspan><tspan x="15.71" y="0" letter-spacing="0">er</tspan></text><text class="cls-12" transform="translate(32.6 10.2)">1<tspan x="4.33" y="0" letter-spacing="-.01em">2</tspan><tspan x="11.05" y="0" letter-spacing="0">x</tspan><tspan x="17.52" y="0">18</tspan></text><text transform="translate(35.92 76)" font-size="8" font-family="Montserrat-Regular,Montserrat" fill="#666766"><tspan letter-spacing="0">L</tspan><tspan x="4.73" y="0">a</tspan><tspan x="9.45" y="0" letter-spacing="-.01em">r</tspan><tspan x="12.55" y="0" letter-spacing="0">ge</tspan><tspan x="-3.33" y="9.6" letter-spacing="-.02em">F</tspan><tspan x="1.59" y="9.6">o</tspan><tspan class="cls-8" x="6.6" y="9.6">r</tspan><tspan x="9.75" y="9.6">mat</tspan></text><text transform="translate(86.48 10.2)" letter-spacing="-.02em" font-size="12" font-family="Montserrat-Regular,Montserrat" fill="#666766">2<tspan x="6.54" y="0" letter-spacing="-.01em">4</tspan><tspan class="cls-22" x="14.33" y="0">x36</tspan></text><text class="cls-12" transform="translate(84.61 129.16)"><tspan letter-spacing="-.01em">P</tspan><tspan x="8.46" y="0">os</tspan><tspan x="21.85" y="0" letter-spacing="-.02em">t</tspan><tspan class="cls-22" x="26.5" y="0">er</tspan></text><text class="cls-12" transform="translate(175.5 10.2)">3<tspan x="6.77" y="0" letter-spacing="-.02em">6</tspan><tspan x="13.9" y="0" letter-spacing="-.03em">x</tspan><tspan x="19.92" y="0" letter-spacing=".01em">4</tspan><tspan x="27.97" y="0">8</tspan></text><text class="cls-12" transform="translate(164.68 163.74)"><tspan letter-spacing="-.03em">T</tspan><tspan x="6.54" y="0">able </tspan><tspan x="35.38" y="0" letter-spacing="-.05em">T</tspan><tspan x="41.6" y="0">op</tspan></text></g></g></svg>